<svg width="188" height="120" viewBox="0 0 188 120" fill="none" xmlns="http://www.w3.org/2000/svg">
<rect width="188" height="120" rx="4" fill="#EFF3F8"/>
<path d="M98.7017 40.375H78.8333C76.45 40.375 74.5 42.2875 74.5 44.625V74.375C74.5 76.7125 76.45 78.625 78.8333 78.625H109.167C111.55 78.625 113.5 76.7125 113.5 74.375V54.8887C113.5 53.7625 113.045 52.6788 112.222 51.8925L101.757 41.6287C100.955 40.8212 99.85 40.375 98.7017 40.375ZM85.3333 65.875H102.667C103.858 65.875 104.833 66.8312 104.833 68C104.833 69.1688 103.858 70.125 102.667 70.125H85.3333C84.1417 70.125 83.1667 69.1688 83.1667 68C83.1667 66.8312 84.1417 65.875 85.3333 65.875ZM85.3333 57.375H102.667C103.858 57.375 104.833 58.3312 104.833 59.5C104.833 60.6688 103.858 61.625 102.667 61.625H85.3333C84.1417 61.625 83.1667 60.6688 83.1667 59.5C83.1667 58.3312 84.1417 57.375 85.3333 57.375ZM85.3333 48.875H96.1667C97.3583 48.875 98.3333 49.8312 98.3333 51C98.3333 52.1688 97.3583 53.125 96.1667 53.125H85.3333C84.1417 53.125 83.1667 52.1688 83.1667 51C83.1667 49.8312 84.1417 48.875 85.3333 48.875Z" fill="#CEDBEB"/>
</svg>
