<svg width="132" height="32" viewBox="0 0 132 32" fill="none" xmlns="http://www.w3.org/2000/svg">
<path d="M6.21291 15.1525V12.3824H9.09748V14.9586C9.09748 18.0611 7.54425 19.834 4.54874 19.834C1.55323 19.834 0 18.0611 0 14.9586V4.87539C0 1.77287 1.55323 0 4.54874 0C7.54425 0 9.09748 1.77287 9.09748 4.87539V6.75907H6.21291V4.68149C6.21291 3.29643 5.60272 2.77011 4.63195 2.77011C3.66118 2.77011 3.05098 3.29643 3.05098 4.68149V15.1525C3.05098 16.5376 3.66118 17.0362 4.63195 17.0362C5.60272 17.0362 6.21291 16.5376 6.21291 15.1525Z" fill="#1A1A1A"/>
<path d="M10.0056 19.6401H9.53411V16.87C10.9209 16.87 11.3647 16.6761 11.4202 14.8755L11.9194 0.221608H20.5454V19.6124H17.4389V2.99172H14.7763L14.4434 14.7093C14.3325 18.255 13.0566 19.6401 10.0056 19.6401Z" fill="#1A1A1A"/>
<path d="M32.3664 0.221608H29.1768L27.79 6.86987L27.0688 11.3852L26.1258 6.84217L24.4616 0.221608H21.4384L25.6543 15.1802L25.6265 15.3464C25.3769 16.7592 24.4893 17.0362 22.9361 16.9254V19.6401C27.1798 19.9171 28.3724 18.1719 29.0936 14.6816L32.3664 0.221608Z" fill="#1A1A1A"/>
<path d="M36.1719 2.99172V19.6124H33.1209V0.221608H41.1644V2.99172H36.1719Z" fill="#1A1A1A"/>
<path fillRule="evenodd" clipRule="evenodd" d="M49.4363 0.221608H44.9708L41.8644 19.6124H44.6657L45.1927 16.0943H48.9371L49.4641 19.6124H52.5428L49.4363 0.221608ZM47.051 3.65654L48.521 13.4627H45.581L47.051 3.65654Z" fill="#1A1A1A"/>
<path d="M63.6789 2.99172H60.2119V19.6124H57.1609V0.221608H66.7853V19.6124H63.6789V2.99172Z" fill="#1A1A1A"/>
<path fillRule="evenodd" clipRule="evenodd" d="M68.1932 14.9586C68.1932 18.0611 69.8296 19.834 72.8251 19.834C75.8206 19.834 77.4571 18.0611 77.4571 14.9586V4.87539C77.4571 1.77287 75.8206 0 72.8251 0C69.8296 0 68.1932 1.77287 68.1932 4.87539V14.9586ZM71.2442 4.68149C71.2442 3.29643 71.8544 2.77011 72.8251 2.77011C73.7959 2.77011 74.4061 3.29643 74.4061 4.68149V15.1525C74.4061 16.5376 73.7959 17.0639 72.8251 17.0639C71.8544 17.0639 71.2442 16.5376 71.2442 15.1525V4.68149Z" fill="#1A1A1A"/>
<path d="M78.4967 19.6401H78.0252V16.87C79.412 16.87 79.8558 16.6761 79.9113 14.8755L80.4105 0.221608H89.0365V19.6124H85.9301V2.99172H83.2674L82.9345 14.7093C82.8236 18.255 81.5477 19.6401 78.4967 19.6401Z" fill="#1A1A1A"/>
<path d="M89.9295 2.99172H93.1191V19.6124H96.1701V2.99172H99.3598V0.221608H89.9295V2.99172Z" fill="#1A1A1A"/>
<path fillRule="evenodd" clipRule="evenodd" d="M102.451 0.221608H106.916L110.023 19.6124H106.944L106.417 16.0943H102.673L102.146 19.6124H99.3444L102.451 0.221608ZM106.001 13.4627L104.531 3.65654L103.061 13.4627H106.001Z" fill="#1A1A1A"/>
<path fillRule="evenodd" clipRule="evenodd" d="M115.493 0.221608H110.889V19.6124H115.687C118.738 19.6124 120.319 18.0057 120.319 15.014V13.435C120.319 11.3852 119.681 9.917 118.045 9.27987C119.404 8.64275 120.014 7.36849 120.014 5.37401V4.68149C120.014 1.68977 118.655 0.221608 115.493 0.221608ZM115.299 10.8865C116.686 10.8865 117.268 11.4406 117.268 13.2411V14.9309C117.268 16.3714 116.714 16.8423 115.687 16.8423H113.94V10.8865H115.299ZM115.41 2.99172C116.492 2.99172 116.963 3.60114 116.963 4.9862V6.06654C116.963 7.6178 116.27 8.11642 115.133 8.11642H113.94V2.99172H115.41Z" fill="#1A1A1A"/>
<path d="M128.536 5.95574L127.288 10.7203L124.736 19.6124H121.602V0.221608H124.32V12.4932L125.43 8.22723L127.926 0.221608H131.282V19.6124H128.536V5.95574Z" fill="#1A1A1A"/>
<path d="M46.1856 26.4598C46.6735 26.5799 47.0553 26.7988 47.3311 27.1166C47.6139 27.4344 47.7553 27.8157 47.7553 28.2607C47.7553 28.6914 47.621 29.0693 47.3523 29.3941C47.0836 29.719 46.7265 29.9697 46.281 30.1462C45.8356 30.3157 45.3512 30.4004 44.8279 30.4004C44.333 30.4004 43.8451 30.3228 43.3643 30.1674C42.8905 30.005 42.4627 29.7649 42.0809 29.4471L42.3672 28.8856C42.6925 29.1611 43.0637 29.3729 43.4809 29.5212C43.8981 29.6625 44.3188 29.7331 44.7431 29.7331C45.1461 29.7331 45.5174 29.6695 45.8568 29.5424C46.1962 29.4153 46.4649 29.2352 46.6629 29.0022C46.8679 28.7621 46.9705 28.4796 46.9705 28.1547C46.9705 27.7239 46.8008 27.392 46.4613 27.159C46.1219 26.9259 45.6446 26.8094 45.0295 26.8094H43.4385V26.1738H44.987C45.5103 26.1738 45.9169 26.0644 46.2068 25.8454C46.5038 25.6195 46.6523 25.3087 46.6523 24.9132C46.6523 24.4754 46.4649 24.1329 46.0901 23.8857C45.7154 23.6315 45.2451 23.5044 44.6795 23.5044C44.3259 23.5044 43.9688 23.5573 43.6082 23.6633C43.2476 23.7621 42.9046 23.914 42.5794 24.1188L42.3142 23.4726C43.0496 23.0347 43.8451 22.8158 44.7007 22.8158C45.2027 22.8158 45.6623 22.897 46.0795 23.0595C46.4967 23.2219 46.8255 23.4549 47.0659 23.7586C47.3134 24.0623 47.4371 24.4189 47.4371 24.8285C47.4371 25.224 47.3275 25.5665 47.1083 25.856C46.8891 26.1385 46.5816 26.3398 46.1856 26.4598Z" fill="#1A1A1A"/>
<path fillRule="evenodd" clipRule="evenodd" d="M10.116 30.4004C9.38063 30.4004 8.71242 30.238 8.11139 29.9132C7.51742 29.5813 7.05074 29.1293 6.71133 28.5573C6.379 27.9852 6.21283 27.3426 6.21283 26.6293C6.21283 25.9161 6.379 25.2734 6.71133 24.7014C7.05074 24.1294 7.51742 23.6809 8.11139 23.3561C8.71242 23.0242 9.38063 22.8582 10.116 22.8582C10.8514 22.8582 11.5125 23.0206 12.0994 23.3455C12.6934 23.6703 13.1601 24.1223 13.4995 24.7014C13.8389 25.2734 14.0086 25.9161 14.0086 26.6293C14.0086 27.3426 13.8389 27.9888 13.4995 28.5679C13.1601 29.1399 12.6934 29.5883 12.0994 29.9132C11.5125 30.238 10.8514 30.4004 10.116 30.4004ZM10.116 29.7013C10.7029 29.7013 11.2332 29.5707 11.707 29.3094C12.1807 29.041 12.552 28.6738 12.8207 28.2077C13.0894 27.7345 13.2237 27.2084 13.2237 26.6293C13.2237 26.0502 13.0894 25.5276 12.8207 25.0616C12.552 24.5884 12.1807 24.2212 11.707 23.9599C11.2332 23.6915 10.7029 23.5573 10.116 23.5573C9.52912 23.5573 8.99526 23.6915 8.51443 23.9599C8.04068 24.2212 7.66591 24.5884 7.39015 25.0616C7.12145 25.5276 6.9871 26.0502 6.9871 26.6293C6.9871 27.2084 7.12145 27.7345 7.39015 28.2077C7.66591 28.6738 8.04068 29.041 8.51443 29.3094C8.99526 29.5707 9.52912 29.7013 10.116 29.7013Z" fill="#1A1A1A"/>
<path d="M2.4607 26.9365H0.763666V30.3369H0V22.9218H0.763666V26.248H2.4607L4.97444 22.9218H5.82296L3.06527 26.5234L5.98205 30.3369H5.0805L2.4607 26.9365Z" fill="#1A1A1A"/>
<path d="M19.7912 26.9365H21.3291L23.5989 30.3369H24.5111L21.9655 26.5128L24.3202 22.9218H23.4716L21.3291 26.248H19.7912V22.9218H19.0275V26.248H17.4684L15.3365 22.9218H14.488L16.8426 26.5128L14.297 30.3369H15.2092L17.479 26.9365H19.0275V30.3369H19.7912V26.9365Z" fill="#1A1A1A"/>
<path d="M30.6875 29.6589V30.3369H25.4373V22.9218H30.5284V23.5997H26.2222V26.2374H30.0617V26.9047H26.2222V29.6589H30.6875Z" fill="#1A1A1A"/>
<path d="M37.5412 30.3369H38.3155V22.9218H37.5412V26.2268H32.8956V22.9218H32.1107V30.3369H32.8956V26.9153H37.5412V30.3369Z" fill="#1A1A1A"/>
<path d="M57.2742 30.3369H58.0485V22.9218H57.2742V26.2268H52.6286V22.9218H51.8437V30.3369H52.6286V26.9153H57.2742V30.3369Z" fill="#1A1A1A"/>
<path fillRule="evenodd" clipRule="evenodd" d="M64.9882 28.356H60.8517L59.9607 30.3369H59.144L62.5381 22.9218H63.3124L66.7065 30.3369H65.8792L64.9882 28.356ZM64.7018 27.7204L62.9199 23.7374L61.1381 27.7204H64.7018Z" fill="#1A1A1A"/>
<path d="M68.959 29.9132C69.553 30.238 70.2176 30.4004 70.953 30.4004C71.5046 30.4004 72.0137 30.3086 72.4804 30.125C72.9541 29.9344 73.3536 29.6625 73.6789 29.3094L73.1804 28.8115C72.6076 29.4047 71.8758 29.7013 70.9848 29.7013C70.398 29.7013 69.8641 29.5671 69.3833 29.2988C68.9024 29.0304 68.5241 28.6632 68.2484 28.1971C67.9797 27.731 67.8453 27.2084 67.8453 26.6293C67.8453 26.0502 67.9797 25.5276 68.2484 25.0616C68.5241 24.5955 68.9024 24.2282 69.3833 23.9599C69.8641 23.6915 70.398 23.5573 70.9848 23.5573C71.8687 23.5573 72.6006 23.8504 73.1804 24.4366L73.6789 23.9387C73.3536 23.5856 72.9577 23.3172 72.491 23.1336C72.0243 22.95 71.5152 22.8582 70.9636 22.8582C70.2283 22.8582 69.5636 23.0206 68.9696 23.3455C68.3757 23.6703 67.909 24.1223 67.5696 24.7014C67.2372 25.2734 67.0711 25.9161 67.0711 26.6293C67.0711 27.3426 67.2372 27.9888 67.5696 28.5679C67.909 29.1399 68.3721 29.5883 68.959 29.9132Z" fill="#1A1A1A"/>
<path d="M76.8241 27.1378H79.603V27.7946H76.8241V27.1378Z" fill="#1A1A1A"/>
<path fillRule="evenodd" clipRule="evenodd" d="M90.4487 32V29.6589H89.3351V22.9218H84.3288L84.2439 25.3264C84.2015 26.6964 84.0848 27.7557 83.8939 28.5043C83.703 29.2458 83.3636 29.6307 82.8757 29.6589H82.5045L82.4939 32H83.2257L83.2363 30.3369H89.7169V32H90.4487ZM84.6788 28.1971C84.8202 27.4626 84.9086 26.5305 84.944 25.4005L85.0076 23.5997H88.5608V29.6589H83.9894C84.3147 29.4118 84.5445 28.9245 84.6788 28.1971Z" fill="#1A1A1A"/>
<path d="M96.9817 29.6589V30.3369H91.7315V22.9218H96.8226V23.5997H92.5164V26.2374H96.356V26.9047H92.5164V29.6589H96.9817Z" fill="#1A1A1A"/>
<path d="M103.878 30.3369H104.652V22.9218H98.4049V30.3369H99.1792V23.5997H103.878V30.3369Z" fill="#1A1A1A"/>
<path d="M112.543 23.161L109.3 29.1611C109.059 29.606 108.777 29.9379 108.451 30.1568C108.133 30.3687 107.783 30.4746 107.401 30.4746C107.118 30.4746 106.814 30.4075 106.489 30.2733L106.712 29.6378C106.966 29.7366 107.2 29.7861 107.412 29.7861C107.9 29.7861 108.299 29.5212 108.61 28.9916L108.823 28.6314L105.81 22.9218H106.648L109.236 27.9429L111.888 22.9218H118.536V23.5997H115.927V30.3369H115.153V23.5997H112.543V23.161Z" fill="#1A1A1A"/>
<path fillRule="evenodd" clipRule="evenodd" d="M123.974 28.356H119.838L118.947 30.3369H118.13L121.524 22.9218H122.298L125.693 30.3369H124.865L123.974 28.356ZM123.688 27.7204L121.906 23.7374L120.124 27.7204H123.688Z" fill="#1A1A1A"/>
<path d="M128.673 23.5997H131.282V22.9218H125.289V23.5997H127.899V30.3369H128.673V23.5997Z" fill="#1A1A1A"/>
</svg>
