<svg width="20" height="20" viewBox="0 0 20 20" fill="none" xmlns="http://www.w3.org/2000/svg">
<path fillRule="evenodd" clipRule="evenodd" d="M7.15 2.29167C7.15 1.79461 6.74706 1.39167 6.25 1.39167C5.75294 1.39167 5.35 1.79461 5.35 2.29167V3.26952C3.2656 3.34835 1.6 5.063 1.6 7.16669V14.5C1.6 16.6539 3.34609 18.4 5.5 18.4H14.5C16.6539 18.4 18.4 16.6539 18.4 14.5V7.16669C18.4 5.063 16.7344 3.34835 14.65 3.26952V2.29167C14.65 1.79461 14.2471 1.39167 13.75 1.39167C13.2529 1.39167 12.85 1.79461 12.85 2.29167V3.26669H7.15V2.29167ZM3.4 14.5V7.50002H16.6V14.5C16.6 15.6598 15.6598 16.6 14.5 16.6H5.5C4.3402 16.6 3.4 15.6598 3.4 14.5ZM5.625 8.68334C5.12794 8.68334 4.725 9.08628 4.725 9.58334C4.725 10.0804 5.12794 10.4833 5.625 10.4833H6.875C7.37206 10.4833 7.775 10.0804 7.775 9.58334C7.775 9.08628 7.37206 8.68334 6.875 8.68334H5.625ZM9.375 8.68334C8.87794 8.68334 8.475 9.08628 8.475 9.58334C8.475 10.0804 8.87794 10.4833 9.375 10.4833H10.625C11.1221 10.4833 11.525 10.0804 11.525 9.58334C11.525 9.08628 11.1221 8.68334 10.625 8.68334H9.375ZM13.125 8.68334C12.6279 8.68334 12.225 9.08628 12.225 9.58334C12.225 10.0804 12.6279 10.4833 13.125 10.4833H14.375C14.8721 10.4833 15.275 10.0804 15.275 9.58334C15.275 9.08628 14.8721 8.68334 14.375 8.68334H13.125ZM5.625 11.1833C5.12794 11.1833 4.725 11.5863 4.725 12.0833C4.725 12.5804 5.12794 12.9833 5.625 12.9833H6.875C7.37206 12.9833 7.775 12.5804 7.775 12.0833C7.775 11.5863 7.37206 11.1833 6.875 11.1833H5.625ZM9.375 11.1833C8.87794 11.1833 8.475 11.5863 8.475 12.0833C8.475 12.5804 8.87794 12.9833 9.375 12.9833H10.625C11.1221 12.9833 11.525 12.5804 11.525 12.0833C11.525 11.5863 11.1221 11.1833 10.625 11.1833H9.375ZM13.125 11.1833C12.6279 11.1833 12.225 11.5863 12.225 12.0833C12.225 12.5804 12.6279 12.9833 13.125 12.9833H14.375C14.8721 12.9833 15.275 12.5804 15.275 12.0833C15.275 11.5863 14.8721 11.1833 14.375 11.1833H13.125ZM5.625 13.6833C5.12794 13.6833 4.725 14.0863 4.725 14.5833C4.725 15.0804 5.12794 15.4833 5.625 15.4833H6.875C7.37206 15.4833 7.775 15.0804 7.775 14.5833C7.775 14.0863 7.37206 13.6833 6.875 13.6833H5.625ZM9.375 13.6833C8.87794 13.6833 8.475 14.0863 8.475 14.5833C8.475 15.0804 8.87794 15.4833 9.375 15.4833H10.625C11.1221 15.4833 11.525 15.0804 11.525 14.5833C11.525 14.0863 11.1221 13.6833 10.625 13.6833H9.375ZM13.125 13.6833C12.6279 13.6833 12.225 14.0863 12.225 14.5833C12.225 15.0804 12.6279 15.4833 13.125 15.4833H14.375C14.8721 15.4833 15.275 15.0804 15.275 14.5833C15.275 14.0863 14.8721 13.6833 14.375 13.6833H13.125Z" fill="#A6B1C4"/>
</svg>
