
<svg width="20" height="20" viewBox="0 0 20 20" fill="none" xmlns="http://www.w3.org/2000/svg">
<path fillRule="evenodd" clipRule="evenodd" d="M18.1818 9.74167C17.3769 13.4413 13.4603 16.2486 8.75 16.2486C8.07053 16.2486 7.40757 16.1902 6.76808 16.0791C8.06607 17.205 9.96623 17.9153 12.0833 17.9153C13.248 17.9153 14.3471 17.7003 15.3163 17.3194C15.7622 17.1442 17.1937 17.5995 18.1797 17.9554C18.5768 18.0987 18.9874 17.723 18.8814 17.3144C18.636 16.3686 18.3521 15.0534 18.5606 14.6942C18.9502 14.0231 19.1667 13.2802 19.1667 12.4986C19.1667 11.4919 18.8075 10.5493 18.1818 9.74167Z" fill="#A6B1C4"/>
<path d="M16.6667 8.33334C16.6667 11.7851 13.1222 14.5833 8.74999 14.5833C7.55918 14.5833 6.42978 14.3758 5.41666 14.004C4.90387 13.8158 3.03937 14.3206 1.85228 14.6785C1.44608 14.8009 1.05932 14.3963 1.19345 13.9938C1.52685 12.9933 1.93375 11.5488 1.66666 11.1276C1.13341 10.2867 0.833328 9.33771 0.833328 8.33334C0.833328 4.88156 4.37774 2.08334 8.74999 2.08334C13.1222 2.08334 16.6667 4.88156 16.6667 8.33334Z" fill="#A6B1C4"/>
</svg>
