<svg width="24" height="16" viewBox="0 0 24 16" fill="none" xmlns="http://www.w3.org/2000/svg">
<path fillRule="evenodd" clipRule="evenodd" d="M14.4778 6.96865C14.5465 7.3321 14.5956 7.69555 14.5956 8.167C14.5956 12.2827 11.8354 15.2 7.68047 15.2C3.70232 15.2 0.480469 11.9782 0.480469 8.00005C0.480469 4.02186 3.70232 0.800049 7.68047 0.800049C9.62537 0.800049 11.2461 1.50726 12.5034 2.686L10.5487 4.56212C10.0182 4.05134 9.08511 3.45216 7.68047 3.45216C5.22482 3.45216 3.22097 5.48545 3.22097 8.00005C3.22097 10.5146 5.22482 12.5479 7.68047 12.5479C10.529 12.5479 11.5997 10.495 11.7667 9.44395H7.68047V6.96861H14.4778V6.96865ZM21.4305 7.21004V5.12005H19.3304V7.21004H17.2405V9.31007H19.3304V11.4001H21.4305V9.31007H23.5205V7.21004H21.4305Z" fill="white"/>
</svg>
