<svg width="120" height="90" viewBox="0 0 120 90" fill="none" xmlns="http://www.w3.org/2000/svg">
<path fill-rule="evenodd" clip-rule="evenodd" d="M45 44.9998L22.685 69.8447L0 44.9998H15C15 20.1499 35.15 0 59.9999 0C71.9749 0 82.8249 4.70998 90.8949 12.34L80.8749 23.4949C75.4699 18.2449 68.1099 14.9999 59.9999 14.9999C43.455 14.9999 30 28.4549 30 44.9998H45ZM97.315 20.1562L75.0001 45.0011H90C90 61.5461 76.545 75.001 60.0001 75.001C51.8851 75.001 44.5301 71.751 39.1251 66.5061L29.1051 77.661C37.1701 85.291 48.0251 90.001 60.0001 90.001C84.85 90.001 105 69.851 105 45.0011H120L97.315 20.1562V20.1562Z" fill="#0052FF"/>
</svg>